<?xml version="1.0" encoding="UTF-8"?>
<svg id="Layer_1" data-name="Layer 1" xmlns="http://www.w3.org/2000/svg" viewBox="0 0 595.28 841.89">
  <path d="M193.73,136.51c2.72,0,5.22.7,7.5,2.1,2.28,1.4,4.24,3.34,5.88,5.82,1.64,2.48,2.9,5.36,3.78,8.64.88,3.28,1.32,6.8,1.32,10.56s-.44,7.24-1.32,10.44c-.88,3.2-2.12,5.98-3.72,8.34-1.6,2.36-3.54,4.2-5.82,5.52-2.28,1.32-4.82,1.98-7.62,1.98h-18.36c-4.96,0-7.44,4.8-7.44,14.4v17.28h44.64v11.88h-62.88v-29.16c0-3.76.4-7.26,1.2-10.5.8-3.24,1.98-6.04,3.54-8.4,1.56-2.36,3.44-4.22,5.64-5.58,2.2-1.36,4.74-2.04,7.62-2.04h18.12c2.64,0,4.74-1.38,6.3-4.14,1.56-2.76,2.34-6.22,2.34-10.38s-.78-7.64-2.34-10.44c-1.56-2.8-3.66-4.2-6.3-4.2h-27.12v-12.12h35.04Z" fill="#231f20"/>
  <path d="M267.53,136.51c2.64,0,5.1.68,7.38,2.04,2.28,1.36,4.24,3.24,5.88,5.64,1.64,2.4,2.92,5.22,3.84,8.46.92,3.24,1.38,6.74,1.38,10.5v44.04c0,3.6-.44,7-1.32,10.2-.88,3.2-2.14,6-3.78,8.4-1.64,2.4-3.6,4.28-5.88,5.64-2.28,1.36-4.78,2.04-7.5,2.04h-26.28c-2.8,0-5.34-.68-7.62-2.04-2.28-1.36-4.22-3.24-5.82-5.64-1.6-2.4-2.86-5.2-3.78-8.4-.92-3.2-1.38-6.6-1.38-10.2v-44.04c0-3.76.46-7.26,1.38-10.5.92-3.24,2.2-6.06,3.84-8.46,1.64-2.4,3.6-4.28,5.88-5.64,2.28-1.36,4.78-2.04,7.5-2.04h26.28ZM239.09,210.07l22.2-61.44h-13.56c-1.36,0-2.56.4-3.6,1.2-1.04.8-1.94,1.86-2.7,3.18-.76,1.32-1.34,2.86-1.74,4.62-.4,1.76-.6,3.6-.6,5.52v46.92ZM247.97,221.59h12.96c1.28,0,2.48-.4,3.6-1.2,1.12-.8,2.06-1.86,2.82-3.18.76-1.32,1.36-2.84,1.8-4.56.44-1.72.66-3.54.66-5.46v-46.44l-21.84,60.84Z" fill="#231f20"/>
  <path d="M337.73,136.51v85.08h20.52v11.88h-61.2v-11.88h22.2v-72.72h-14.28v-12.36h32.76Z" fill="#231f20"/>
  <path d="M412.37,136.15c3.68,0,6.8.4,9.36,1.2,2.56.8,4.64,2.1,6.24,3.9,1.6,1.8,2.76,4.22,3.48,7.26.72,3.04,1.08,6.76,1.08,11.16v50.16c0,4.56-.36,8.34-1.08,11.34s-1.88,5.42-3.48,7.26c-1.6,1.84-3.68,3.14-6.24,3.9-2.56.76-5.68,1.14-9.36,1.14h-37.2v-11.88h31.2c1.36,0,2.5-.18,3.42-.54.92-.36,1.68-1.02,2.28-1.98.6-.96,1.02-2.26,1.26-3.9.24-1.64.36-3.74.36-6.3v-13.92h-28.32c-5.28,0-9.24-1.82-11.88-5.46-2.64-3.64-3.96-8.38-3.96-14.22v-15.6c0-4.4.34-8.12,1.02-11.16.68-3.04,1.8-5.46,3.36-7.26,1.56-1.8,3.6-3.1,6.12-3.9,2.52-.8,5.62-1.2,9.3-1.2h23.04ZM395.09,148.63c-1.52,0-2.76.32-3.72.96-.96.64-1.7,1.7-2.22,3.18-.52,1.48-.88,3.42-1.08,5.82-.2,2.4-.3,5.36-.3,8.88,0,5.28.26,9.18.78,11.7.52,2.52,1.66,3.78,3.42,3.78h21.72v-21.36c0-5.04-.54-8.46-1.62-10.26-1.08-1.8-2.98-2.7-5.7-2.7h-11.28Z" fill="#231f20"/>
</svg>