<?xml version="1.0" encoding="UTF-8"?>
<svg id="Layer_1" data-name="Layer 1" xmlns="http://www.w3.org/2000/svg" viewBox="0 0 595.28 841.89">
  <path d="M208.22,221.29c2.27,0,4.35.58,6.25,1.75,1.9,1.17,3.53,2.78,4.9,4.85,1.37,2.07,2.42,4.47,3.15,7.2.73,2.73,1.1,5.67,1.1,8.8s-.37,6.03-1.1,8.7c-.73,2.67-1.77,4.98-3.1,6.95-1.33,1.97-2.95,3.5-4.85,4.6-1.9,1.1-4.02,1.65-6.35,1.65h-15.3c-4.13,0-6.2,4-6.2,12v14.4h37.2v9.9h-52.4v-24.3c0-3.13.33-6.05,1-8.75.67-2.7,1.65-5.03,2.95-7,1.3-1.97,2.87-3.52,4.7-4.65,1.83-1.13,3.95-1.7,6.35-1.7h15.1c2.2,0,3.95-1.15,5.25-3.45,1.3-2.3,1.95-5.18,1.95-8.65s-.65-6.37-1.95-8.7c-1.3-2.33-3.05-3.5-5.25-3.5h-22.6v-10.1h29.2Z" fill="#231f20"/>
  <path d="M269.72,221.29c2.2,0,4.25.57,6.15,1.7,1.9,1.13,3.53,2.7,4.9,4.7,1.37,2,2.43,4.35,3.2,7.05.77,2.7,1.15,5.62,1.15,8.75v36.7c0,3-.37,5.83-1.1,8.5-.73,2.67-1.78,5-3.15,7-1.37,2-3,3.57-4.9,4.7-1.9,1.13-3.98,1.7-6.25,1.7h-21.9c-2.33,0-4.45-.57-6.35-1.7-1.9-1.13-3.52-2.7-4.85-4.7-1.33-2-2.38-4.33-3.15-7-.77-2.67-1.15-5.5-1.15-8.5v-36.7c0-3.13.38-6.05,1.15-8.75.77-2.7,1.83-5.05,3.2-7.05,1.37-2,3-3.57,4.9-4.7,1.9-1.13,3.98-1.7,6.25-1.7h21.9ZM246.02,282.59l18.5-51.2h-11.3c-1.13,0-2.13.33-3,1-.87.67-1.62,1.55-2.25,2.65-.63,1.1-1.12,2.38-1.45,3.85-.33,1.47-.5,3-.5,4.6v39.1ZM253.42,292.19h10.8c1.07,0,2.07-.33,3-1,.93-.67,1.72-1.55,2.35-2.65.63-1.1,1.13-2.37,1.5-3.8.37-1.43.55-2.95.55-4.55v-38.7l-18.2,50.7Z" fill="#231f20"/>
  <path d="M328.22,221.29v70.9h17.1v9.9h-51v-9.9h18.5v-60.6h-11.9v-10.3h27.3Z" fill="#231f20"/>
  <path d="M390.42,220.99c3.06,0,5.67.33,7.8,1,2.13.67,3.87,1.75,5.2,3.25,1.33,1.5,2.3,3.52,2.9,6.05.6,2.53.9,5.63.9,9.3v41.8c0,3.8-.3,6.95-.9,9.45-.6,2.5-1.57,4.52-2.9,6.05-1.33,1.53-3.07,2.62-5.2,3.25-2.13.63-4.73.95-7.8.95h-31v-9.9h26c1.13,0,2.08-.15,2.85-.45.77-.3,1.4-.85,1.9-1.65s.85-1.88,1.05-3.25c.2-1.37.3-3.12.3-5.25v-11.6h-23.6c-4.4,0-7.7-1.52-9.9-4.55-2.2-3.03-3.3-6.98-3.3-11.85v-13c0-3.67.28-6.77.85-9.3.56-2.53,1.5-4.55,2.8-6.05,1.3-1.5,3-2.58,5.1-3.25,2.1-.67,4.68-1,7.75-1h19.2ZM376.02,231.39c-1.27,0-2.3.27-3.1.8-.8.53-1.42,1.42-1.85,2.65-.44,1.23-.73,2.85-.9,4.85-.17,2-.25,4.47-.25,7.4,0,4.4.21,7.65.65,9.75.43,2.1,1.38,3.15,2.85,3.15h18.1v-17.8c0-4.2-.45-7.05-1.35-8.55s-2.48-2.25-4.75-2.25h-9.4Z" fill="#231f20"/>
</svg>