<?xml version="1.0" encoding="UTF-8"?>
<svg id="Layer_1" data-name="Layer 1" xmlns="http://www.w3.org/2000/svg" viewBox="0 0 595.28 841.89">
  <path d="M193.73,136.51c2.72,0,5.22.7,7.5,2.1,2.28,1.4,4.24,3.34,5.88,5.82,1.64,2.48,2.9,5.36,3.78,8.64.88,3.28,1.32,6.8,1.32,10.56s-.44,7.24-1.32,10.44c-.88,3.2-2.12,5.98-3.72,8.34-1.6,2.36-3.54,4.2-5.82,5.52-2.28,1.32-4.82,1.98-7.62,1.98h-18.36c-4.96,0-7.44,4.8-7.44,14.4v17.28h44.64v11.88h-62.88v-29.16c0-3.76.4-7.26,1.2-10.5.8-3.24,1.98-6.04,3.54-8.4,1.56-2.36,3.44-4.22,5.64-5.58,2.2-1.36,4.74-2.04,7.62-2.04h18.12c2.64,0,4.74-1.38,6.3-4.14,1.56-2.76,2.34-6.22,2.34-10.38s-.78-7.64-2.34-10.44c-1.56-2.8-3.66-4.2-6.3-4.2h-27.12v-12.12h35.04Z" fill="#231f20"/>
  <path d="M267.53,136.51c2.64,0,5.1.68,7.38,2.04,2.28,1.36,4.24,3.24,5.88,5.64,1.64,2.4,2.92,5.22,3.84,8.46.92,3.24,1.38,6.74,1.38,10.5v44.04c0,3.6-.44,7-1.32,10.2-.88,3.2-2.14,6-3.78,8.4-1.64,2.4-3.6,4.28-5.88,5.64-2.28,1.36-4.78,2.04-7.5,2.04h-26.28c-2.8,0-5.34-.68-7.62-2.04-2.28-1.36-4.22-3.24-5.82-5.64-1.6-2.4-2.86-5.2-3.78-8.4-.92-3.2-1.38-6.6-1.38-10.2v-44.04c0-3.76.46-7.26,1.38-10.5.92-3.24,2.2-6.06,3.84-8.46,1.64-2.4,3.6-4.28,5.88-5.64,2.28-1.36,4.78-2.04,7.5-2.04h26.28ZM239.09,210.07l22.2-61.44h-13.56c-1.36,0-2.56.4-3.6,1.2-1.04.8-1.94,1.86-2.7,3.18-.76,1.32-1.34,2.86-1.74,4.62-.4,1.76-.6,3.6-.6,5.52v46.92ZM247.97,221.59h12.96c1.28,0,2.48-.4,3.6-1.2,1.12-.8,2.06-1.86,2.82-3.18.76-1.32,1.36-2.84,1.8-4.56.44-1.72.66-3.54.66-5.46v-46.44l-21.84,60.84Z" fill="#231f20"/>
  <path d="M340.37,136.51c2.72,0,5.22.7,7.5,2.1,2.28,1.4,4.24,3.34,5.88,5.82,1.64,2.48,2.9,5.36,3.78,8.64.88,3.28,1.32,6.8,1.32,10.56s-.44,7.24-1.32,10.44c-.88,3.2-2.12,5.98-3.72,8.34-1.6,2.36-3.54,4.2-5.82,5.52-2.28,1.32-4.82,1.98-7.62,1.98h-18.36c-4.96,0-7.44,4.8-7.44,14.4v17.28h44.64v11.88h-62.88v-29.16c0-3.76.4-7.26,1.2-10.5.8-3.24,1.98-6.04,3.54-8.4,1.56-2.36,3.44-4.22,5.64-5.58,2.2-1.36,4.74-2.04,7.62-2.04h18.12c2.64,0,4.74-1.38,6.3-4.14,1.56-2.76,2.34-6.22,2.34-10.38s-.78-7.64-2.34-10.44c-1.56-2.8-3.66-4.2-6.3-4.2h-27.12v-12.12h35.04Z" fill="#231f20"/>
  <path d="M411.05,136.51v85.08h20.52v11.88h-61.2v-11.88h22.2v-72.72h-14.28v-12.36h32.76Z" fill="#231f20"/>
</svg>