<?xml version="1.0" encoding="UTF-8"?>
<svg id="Layer_1" xmlns="http://www.w3.org/2000/svg" version="1.1" viewBox="0 0 595.3 841.9">
  <!-- Generator: Adobe Illustrator 29.6.0, SVG Export Plug-In . SVG Version: 2.1.1 Build 207)  -->
  <defs>
    <style>
      .st0 {
        fill: #231f20;
      }
    </style>
  </defs>
  <path class="st0" d="M199.2,210.1v4.9h-13.8c-.6,0-1.1,0-1.4.2s-.7.4-.9.8c-.2.4-.4.9-.5,1.6s-.1,1.5-.1,2.5v11.2c0,2.5.5,3.9,1.6,4.5.5.3,2.2.4,5,.4s1.2,0,2,0c.8,0,1.9,0,3.1,0h5v4.8h-16.3c-1.4,0-2.6-.2-3.6-.5-1-.4-1.8-.9-2.5-1.7s-1.1-1.8-1.4-3.1c-.3-1.3-.5-2.9-.5-4.8v-10.7c0-1.9.1-3.4.5-4.7.3-1.3.8-2.3,1.4-3.1.6-.8,1.5-1.4,2.5-1.7,1-.4,2.2-.5,3.6-.5h16.3Z"/>
  <path class="st0" d="M220,200.3v35.8h8.5v4.8h-24.3v-4.8h8.4v-31h-8.4v-4.9h15.8Z"/>
  <path class="st0" d="M250.5,210.1c1.5,0,2.7.1,3.7.4,1,.3,1.8.8,2.5,1.5s1.1,1.7,1.4,2.9.4,2.8.4,4.6v21.3h-18.7c-1,0-2-.2-2.8-.7-.9-.5-1.6-1.1-2.2-2-.6-.9-1.1-1.9-1.4-3-.3-1.2-.5-2.4-.5-3.8s.2-2.6.5-3.8c.3-1.2.8-2.2,1.4-3.1s1.4-1.6,2.2-2.1c.9-.5,1.8-.7,2.8-.7h11.3v-2.6c0-1.6-.2-2.7-.6-3.2-.4-.5-1.2-.8-2.2-.8h-11.5v-4.9h13.8,0ZM245.1,226.4c-1,0-1.8,0-2.4.2s-1.1.4-1.5.8-.6.8-.8,1.4c-.1.6-.2,1.3-.2,2.1,0,3.5.6,5.2,1.9,5.2h9v-9.8h-6,0Z"/>
  <path class="st0" d="M285.9,210.1v4.9h-14.7c-.8,0-1.5.3-1.9.8-.5.5-.7,1.5-.7,2.8,0,2.4.9,3.6,2.6,3.6h10.1c1.1,0,2,.2,2.9.7.8.5,1.5,1.1,2.1,1.9.6.8,1,1.7,1.3,2.8.3,1.1.5,2.2.5,3.5,0,3.1-.6,5.5-1.8,7.2-1.2,1.7-2.9,2.6-5.3,2.6h-18v-4.8h16.4c.6,0,1.1-.3,1.5-1,.4-.6.6-1.6.6-3s-.2-2.3-.6-2.9c-.4-.6-.9-.9-1.5-.9h-10.5c-1.1,0-2.2-.2-3-.7-.9-.5-1.6-1.1-2.1-1.9-.6-.8-1-1.8-1.3-2.9-.3-1.1-.4-2.4-.4-3.7,0-2.8.6-5,1.8-6.6,1.2-1.6,3.1-2.4,5.6-2.4h16.4,0Z"/>
  <path class="st0" d="M315.2,210.1v4.9h-14.7c-.8,0-1.5.3-1.9.8-.5.5-.7,1.5-.7,2.8,0,2.4.9,3.6,2.6,3.6h10.1c1.1,0,2,.2,2.9.7.8.5,1.5,1.1,2.1,1.9.6.8,1,1.7,1.3,2.8.3,1.1.5,2.2.5,3.5,0,3.1-.6,5.5-1.8,7.2-1.2,1.7-2.9,2.6-5.3,2.6h-18v-4.8h16.4c.6,0,1.1-.3,1.5-1,.4-.6.6-1.6.6-3s-.2-2.3-.6-2.9c-.4-.6-.9-.9-1.5-.9h-10.5c-1.1,0-2.2-.2-3-.7-.9-.5-1.6-1.1-2.1-1.9-.6-.8-1-1.8-1.3-2.9-.3-1.1-.4-2.4-.4-3.7,0-2.8.6-5,1.8-6.6,1.2-1.6,3.1-2.4,5.6-2.4h16.4,0Z"/>
  <path class="st0" d="M368.2,210.1c1.4,0,2.6.2,3.5.5s1.8.9,2.5,1.7c.7.8,1.1,1.8,1.5,3.1.3,1.3.5,2.9.5,4.7v10.7c0,1.9-.1,3.5-.5,4.8-.3,1.3-.8,2.3-1.4,3.1-.7.8-1.5,1.4-2.5,1.7-1,.4-2.2.5-3.6.5h-10.3c-1.4,0-2.7-.2-3.7-.5s-1.9-.9-2.5-1.7-1.1-1.8-1.4-3.1-.4-2.9-.4-4.8v-10.7c0-1.9.1-3.4.4-4.7.3-1.3.8-2.3,1.4-3.1.6-.8,1.5-1.4,2.5-1.7,1-.4,2.3-.5,3.7-.5h10.3ZM357.4,230.7c0,1.9.2,3.3.6,4.1.4.9,1.2,1.3,2.3,1.3h5.3c1.1,0,1.9-.4,2.3-1.3.4-.9.6-2.2.6-4.1v-10.7c0-1.8-.2-3.1-.6-4-.4-.8-1.2-1.2-2.3-1.2h-5.3c-1.1,0-1.9.4-2.3,1.2-.4.8-.6,2.1-.6,4v10.6h0Z"/>
  <path class="st0" d="M387.2,210.1c0-2,.1-3.7.4-4.9.3-1.3.8-2.3,1.4-3s1.5-1.2,2.5-1.5c1-.3,2.2-.4,3.6-.4h9.4v4.9h-6.8c-.5,0-1,0-1.4.2-.4.1-.7.4-1,.7-.3.4-.4.9-.5,1.5s-.2,1.5-.2,2.5h6.7v4.9h-6.7v25.9h-7.4v-25.9h-7.1v-4.9h7.1Z"/>
  <path class="st0" d="M192.4,287.9c2.7,0,5.2.7,7.5,2.1s4.2,3.3,5.9,5.8,2.9,5.4,3.8,8.6c.9,3.3,1.3,6.8,1.3,10.6s-.4,7.2-1.3,10.4-2.1,6-3.7,8.3-3.5,4.2-5.8,5.5c-2.3,1.3-4.8,2-7.6,2h-18.4c-5,0-7.4,4.8-7.4,14.4v17.3h44.6v11.9h-62.9v-29.2c0-3.8.4-7.3,1.2-10.5s2-6,3.5-8.4,3.4-4.2,5.6-5.6,4.7-2,7.6-2h18.1c2.6,0,4.7-1.4,6.3-4.1s2.3-6.2,2.3-10.4-.8-7.6-2.3-10.4-3.7-4.2-6.3-4.2h-27.1v-12.1h35Z"/>
  <path class="st0" d="M266.2,287.9c2.6,0,5.1.7,7.4,2,2.3,1.4,4.2,3.2,5.9,5.6,1.6,2.4,2.9,5.2,3.8,8.5.9,3.2,1.4,6.7,1.4,10.5v44c0,3.6-.4,7-1.3,10.2s-2.1,6-3.8,8.4c-1.6,2.4-3.6,4.3-5.9,5.6-2.3,1.4-4.8,2-7.5,2h-26.3c-2.8,0-5.3-.7-7.6-2-2.3-1.4-4.2-3.2-5.8-5.6-1.6-2.4-2.9-5.2-3.8-8.4-.9-3.2-1.4-6.6-1.4-10.2v-44c0-3.8.5-7.3,1.4-10.5s2.2-6.1,3.8-8.5,3.6-4.3,5.9-5.6c2.3-1.4,4.8-2,7.5-2h26.3ZM237.7,361.5l22.2-61.4h-13.6c-1.4,0-2.6.4-3.6,1.2-1,.8-1.9,1.9-2.7,3.2s-1.3,2.9-1.7,4.6c-.4,1.8-.6,3.6-.6,5.5v46.9ZM246.6,373h13c1.3,0,2.5-.4,3.6-1.2,1.1-.8,2.1-1.9,2.8-3.2s1.4-2.8,1.8-4.6.7-3.5.7-5.5v-46.4l-21.8,60.8Z"/>
  <path class="st0" d="M339,287.9c2.7,0,5.2.7,7.5,2.1s4.2,3.3,5.9,5.8,2.9,5.4,3.8,8.6c.9,3.3,1.3,6.8,1.3,10.6s-.4,7.2-1.3,10.4-2.1,6-3.7,8.3-3.5,4.2-5.8,5.5c-2.3,1.3-4.8,2-7.6,2h-18.4c-5,0-7.4,4.8-7.4,14.4v17.3h44.6v11.9h-62.9v-29.2c0-3.8.4-7.3,1.2-10.5.8-3.2,2-6,3.5-8.4s3.4-4.2,5.6-5.6,4.7-2,7.6-2h18.1c2.6,0,4.7-1.4,6.3-4.1s2.3-6.2,2.3-10.4-.8-7.6-2.3-10.4-3.7-4.2-6.3-4.2h-27.1v-12.1h35,0Z"/>
  <path d="M419.7,287.9v12.5h-26c-2.7,0-4.6.9-5.6,2.6-1,1.8-1.6,5.2-1.6,10.2v12h28.8c5.1,0,9,1.8,11.8,5.3,2.7,3.5,4.1,8.3,4.1,14.4v16.3c0,4.6-.4,8.4-1.1,11.4-.7,3-1.9,5.5-3.5,7.3-1.6,1.8-3.7,3.1-6.2,3.8-2.5.8-5.6,1.1-9.3,1.1h-23c-3.6,0-6.7-.4-9.2-1.1-2.5-.8-4.6-2-6.1-3.8-1.6-1.8-2.7-4.2-3.4-7.3-.7-3-1.1-6.8-1.1-11.4v-49.8c0-4.6.4-8.3,1.1-11.3.7-3,1.9-5.4,3.4-7.2,1.6-1.8,3.6-3.1,6.1-3.8,2.5-.8,5.6-1.1,9.2-1.1h31.7ZM386.5,360.1c0,2.6.1,4.7.4,6.4s.6,3,1.2,4c.6,1,1.3,1.6,2.2,2,.9.4,2.1.6,3.4.6h12.4c2.4,0,4.2-.7,5.3-2.2,1.1-1.5,1.7-4.2,1.7-8.1v-17.3c0-5.4-1.3-8.2-4-8.2h-22.6v22.8Z"/>
</svg>